<svg xmlns="http://www.w3.org/2000/svg" version="1.1" xmlns:xlink="http://www.w3.org/1999/xlink" xmlns:svgjs="http://svgjs.dev/svgjs" width="1000" height="308" viewBox="0 0 1000 308"><g transform="matrix(1,0,0,1,-0.6060572195619898,0.055339001012498557)"><svg viewBox="0 0 396 122" data-background-color="#ffffff" preserveAspectRatio="xMidYMid meet" height="308" width="1000" xmlns="http://www.w3.org/2000/svg" xmlns:xlink="http://www.w3.org/1999/xlink"><defs></defs><g id="tight-bounds" transform="matrix(1,0,0,1,0.2399990854413545,-0.021919993907545177)"><svg viewBox="0 0 395.52 122.04383998781509" height="122.04383998781509" width="395.52"><g><svg viewBox="0 0 588.0506639562323 181.45216711317465" height="122.04383998781509" width="395.52"><g transform="matrix(1,0,0,1,192.53066395623233,46.96048608597116)"><svg viewBox="0 0 395.52 87.53119494123233" height="87.53119494123233" width="395.52"><g><svg viewBox="0 0 395.52 87.53119494123233" height="87.53119494123233" width="395.52"><g><svg viewBox="0 0 395.52 47.2101439969194" height="47.2101439969194" width="395.52"><g transform="matrix(1,0,0,1,0,0)"><svg width="395.52" viewBox="2.3399999141693115 -35.51045227050781 298.05999755859375 36.00045394897461" height="47.2101439969194" data-palette-color="#c10000"><g class="undefined-text-0" data-fill-palette-color="primary" id="text-0"><path d="M37.33-10.3L37.33-10.3Q37.33-8.42 36.85-6.92 36.38-5.42 35.6-4.27 34.81-3.13 33.76-2.32 32.71-1.51 31.59-1 30.47-0.49 29.31-0.24 28.15 0 27.12 0L27.12 0 2.64 0 2.64-6.35 27.12-6.35Q28.96-6.35 29.97-7.42 30.98-8.5 30.98-10.3L30.98-10.3Q30.98-11.18 30.71-11.91 30.44-12.65 29.94-13.18 29.44-13.72 28.72-14.01 28-14.31 27.12-14.31L27.12-14.31 12.52-14.31Q10.99-14.31 9.2-14.86 7.42-15.41 5.9-16.63 4.37-17.85 3.36-19.82 2.34-21.8 2.34-24.66L2.34-24.66Q2.34-27.51 3.36-29.48 4.37-31.45 5.9-32.68 7.42-33.91 9.2-34.46 10.99-35.01 12.52-35.01L12.52-35.01 34.13-35.01 34.13-28.66 12.52-28.66Q10.72-28.66 9.7-27.56 8.69-26.46 8.69-24.66L8.69-24.66Q8.69-22.83 9.7-21.77 10.72-20.7 12.52-20.7L12.52-20.7 27.12-20.7 27.17-20.7Q28.2-20.68 29.35-20.42 30.49-20.17 31.63-19.63 32.76-19.09 33.79-18.27 34.81-17.46 35.61-16.31 36.4-15.16 36.87-13.67 37.33-12.18 37.33-10.3ZM76.95-31.81L76.95 0 70.6 0 70.6-8.59 48.29-8.59 48.29 0 41.94 0 41.94-17.5Q41.94-21.34 43.26-24.56 44.58-27.78 46.92-30.1 49.27-32.42 52.46-33.72 55.66-35.01 59.45-35.01L59.45-35.01 73.75-35.01Q74.41-35.01 75-34.77 75.58-34.52 76.02-34.08 76.46-33.64 76.71-33.06 76.95-32.47 76.95-31.81L76.95-31.81ZM48.29-17.5L48.29-14.94 70.6-14.94 70.6-28.66 59.45-28.66Q59.15-28.66 58.21-28.58 57.27-28.49 56.04-28.15 54.81-27.81 53.44-27.1 52.07-26.39 50.93-25.15 49.78-23.9 49.03-22.03 48.29-20.17 48.29-17.5L48.29-17.5ZM125.07-32.3L125.07 0 118.67 0 118.67-20.85 107.42-1.05Q107-0.29 106.26 0.1 105.51 0.49 104.66 0.49L104.66 0.49Q103.83 0.49 103.11 0.1 102.39-0.29 101.97-1.05L101.97-1.05 90.67-20.85 90.67 0 84.32 0 84.32-32.3Q84.32-33.4 84.97-34.25 85.62-35.11 86.66-35.4L86.66-35.4Q87.18-35.52 87.69-35.49 88.2-35.45 88.68-35.27 89.16-35.08 89.55-34.75 89.94-34.42 90.2-33.96L90.2-33.96 104.66-8.84 119.11-33.96Q119.67-34.89 120.66-35.28 121.65-35.67 122.72-35.4L122.72-35.4Q123.75-35.11 124.41-34.25 125.07-33.4 125.07-32.3L125.07-32.3ZM138.84-35.01L138.84 0 132.49 0 132.49-35.01 138.84-35.01Z" fill="#c10000" data-fill-palette-color="primary"></path><path d="M171.48-20.7L171.48-14.31 151.41-14.31 151.41-20.7 171.48-20.7ZM174.31-35.01L174.31-28.66 148.87-28.66 148.87 0 142.53 0 142.53-31.81Q142.53-32.47 142.77-33.06 143.01-33.64 143.44-34.08 143.87-34.52 144.46-34.77 145.04-35.01 145.72-35.01L145.72-35.01 174.31-35.01ZM216.18-20.85L216.18-14.16Q216.18-10.96 215.08-8.28 213.98-5.59 212.03-3.64 210.08-1.68 207.4-0.6 204.73 0.49 201.58 0.49L201.58 0.49 192.99 0.49Q189.84 0.49 187.15-0.6 184.47-1.68 182.51-3.64 180.56-5.59 179.45-8.28 178.34-10.96 178.34-14.16L178.34-14.16 178.34-20.85Q178.34-24.02 179.45-26.72 180.56-29.42 182.51-31.36 184.47-33.3 187.15-34.4 189.84-35.5 192.99-35.5L192.99-35.5 201.58-35.5Q204.73-35.5 207.4-34.4 210.08-33.3 212.03-31.36 213.98-29.42 215.08-26.72 216.18-24.02 216.18-20.85L216.18-20.85ZM209.83-14.16L209.83-20.85Q209.83-22.73 209.24-24.26 208.64-25.78 207.55-26.87 206.46-27.95 204.94-28.55 203.41-29.15 201.58-29.15L201.58-29.15 192.99-29.15Q191.13-29.15 189.61-28.55 188.08-27.95 186.98-26.87 185.88-25.78 185.29-24.26 184.69-22.73 184.69-20.85L184.69-20.85 184.69-14.16Q184.69-12.28 185.29-10.75 185.88-9.23 186.98-8.14 188.08-7.06 189.61-6.46 191.13-5.86 192.99-5.86L192.99-5.86 201.53-5.86Q203.39-5.86 204.91-6.46 206.44-7.06 207.54-8.14 208.64-9.23 209.24-10.75 209.83-12.28 209.83-14.16L209.83-14.16ZM259.2-20.85L259.2-14.16Q259.2-10.96 258.1-8.28 257-5.59 255.05-3.64 253.09-1.68 250.42-0.6 247.75 0.49 244.6 0.49L244.6 0.49 236 0.49Q232.85 0.49 230.17-0.6 227.48-1.68 225.53-3.64 223.58-5.59 222.47-8.28 221.35-10.96 221.35-14.16L221.35-14.16 221.35-20.85Q221.35-24.02 222.47-26.72 223.58-29.42 225.53-31.36 227.48-33.3 230.17-34.4 232.85-35.5 236-35.5L236-35.5 244.6-35.5Q247.75-35.5 250.42-34.4 253.09-33.3 255.05-31.36 257-29.42 258.1-26.72 259.2-24.02 259.2-20.85L259.2-20.85ZM252.85-14.16L252.85-20.85Q252.85-22.73 252.25-24.26 251.65-25.78 250.57-26.87 249.48-27.95 247.95-28.55 246.43-29.15 244.6-29.15L244.6-29.15 236-29.15Q234.15-29.15 232.62-28.55 231.1-27.95 230-26.87 228.9-25.78 228.3-24.26 227.7-22.73 227.7-20.85L227.7-20.85 227.7-14.16Q227.7-12.28 228.3-10.75 228.9-9.23 230-8.14 231.1-7.06 232.62-6.46 234.15-5.86 236-5.86L236-5.86 244.55-5.86Q246.4-5.86 247.93-6.46 249.46-7.06 250.55-8.14 251.65-9.23 252.25-10.75 252.85-12.28 252.85-14.16L252.85-14.16ZM300.4-20.36L300.4-14.65Q300.4-11.45 299.29-8.76 298.18-6.08 296.23-4.14 294.28-2.2 291.59-1.1 288.91 0 285.76 0L285.76 0 268.62 0Q267.93 0 267.35-0.24 266.76-0.49 266.33-0.92 265.91-1.34 265.66-1.93 265.42-2.51 265.42-3.2L265.42-3.2 265.42-31.81Q265.42-32.47 265.66-33.06 265.91-33.64 266.33-34.08 266.76-34.52 267.35-34.77 267.93-35.01 268.62-35.01L268.62-35.01 285.76-35.01Q288.91-35.01 291.59-33.91 294.28-32.81 296.23-30.87 298.18-28.93 299.29-26.23 300.4-23.54 300.4-20.36L300.4-20.36ZM294.06-14.65L294.06-20.36Q294.06-22.22 293.46-23.75 292.86-25.29 291.76-26.38 290.66-27.47 289.14-28.06 287.61-28.66 285.76-28.66L285.76-28.66 271.77-28.66 271.77-6.35 285.76-6.35Q287.61-6.35 289.14-6.95 290.66-7.54 291.76-8.63 292.86-9.72 293.46-11.24 294.06-12.77 294.06-14.65L294.06-14.65Z" fill="#003c3b" data-fill-palette-color="secondary"></path></g></svg></g></svg></g><g transform="matrix(1,0,0,1,0,58.355325951136145)"><svg viewBox="0 0 201.93744366296423 29.175868990096188" height="29.175868990096188" width="201.93744366296423"><g transform="matrix(1,0,0,1,0,0)"><svg width="201.93744366296423" viewBox="3.25 -35.63999938964844 253.6099853515625 36.63999938964844" height="29.175868990096188" data-palette-color="#003c3b"><path d="M12.89-18.99L12.89-18.99 12.89-19.8Q15.33-20.07 17.07-20.78 18.8-21.48 19.92-22.58 21.04-23.68 21.57-25.17 22.09-26.66 22.09-28.49L22.09-28.49Q22.02-29.96 21.67-30.96 21.31-31.96 20.48-32.58 19.65-33.2 18.27-33.48 16.89-33.76 14.77-33.76L14.77-33.76Q13.99-33.76 13.12-33.73 12.26-33.69 11.25-33.64L11.25-33.64Q11.4-33.06 11.4-32.4L11.4-32.4 11.4-4.39Q11.4-3.39 11.58-2.69 11.77-1.98 12.21-1.49 12.65-1 13.39-0.7 14.14-0.39 15.26-0.2L15.26-0.2 15.04 0.39Q13.55 0.2 12.48 0.1 11.4 0 10.69 0L10.69 0Q10.03 0 9.18 0.1 8.33 0.2 7.3 0.39L7.3 0.39 7.15 0.15Q7.64-0.56 7.64-2.44L7.64-2.44 7.64-28.1Q7.64-29.71 7.5-30.8 7.35-31.88 6.96-32.54 6.57-33.2 5.86-33.48 5.15-33.76 3.34-33.74L3.34-33.74 3.25-34.45Q4.88-34.67 6.14-34.84 7.4-35.01 8.53-35.14 9.67-35.28 10.78-35.38 11.89-35.47 12.92-35.53 13.94-35.6 14.56-35.62 15.19-35.64 15.75-35.64L15.75-35.64Q17.97-35.64 19.86-35.31 21.75-34.99 23.13-34.17 24.51-33.35 25.28-31.96 26.05-30.57 26.05-28.44L26.05-28.44Q26.05-26.86 25.35-25.44 24.66-24.02 23.47-22.85 22.29-21.68 20.72-20.79 19.14-19.9 17.36-19.36L17.36-19.36 17.36-19.09 27.29-4.91Q28.59-3.03 30.64-2L30.64-2Q32.64-1.15 33.07-1 33.5-0.85 34.06-0.66L34.06-0.66 34.06-0.2Q29.74-0.2 26.81 0.71L26.81 0.71 26.44 0.49Q26.44 0.15 26.03-0.52 25.61-1.2 25.01-2.04 24.41-2.88 22.88-5.09 21.34-7.3 12.89-18.99ZM37.33-11.89L37.33-11.89Q37.33-14.48 38.18-16.91 39.04-19.34 40.62-21.23 42.21-23.12 44.47-24.26 46.73-25.39 49.53-25.39L49.53-25.39Q51.29-25.39 52.85-24.79 54.42-24.19 55.58-22.94 56.74-21.68 57.41-19.71 58.08-17.75 58.08-15.04L58.08-15.04 57.13-14.16 41.18-14.16Q41.14-13.75 41.14-13.35 41.14-12.96 41.14-12.57L41.14-12.57Q41.14-9.91 41.76-7.74 42.38-5.57 43.44-4.02 44.5-2.47 45.94-1.61 47.39-0.76 49-0.76L49-0.76Q50.02-0.76 51.08-0.92 52.15-1.07 53.16-1.42 54.17-1.76 55.12-2.29 56.08-2.83 56.88-3.59L56.88-3.59 57.88-2.54Q55.95-0.63 53.68 0.18 51.41 1 48.44 1L48.44 1Q46.09 1 44.05 0.1 42.01-0.81 40.52-2.49 39.04-4.17 38.18-6.56 37.33-8.94 37.33-11.89ZM49-23.71L49-23.71Q45.21-23.71 43.45-21.74 41.7-19.78 41.33-16.09L41.33-16.09 54.93-16.09Q54.73-20.09 53.13-21.9 51.54-23.71 49-23.71ZM79.9-5.69L79.9-5.69Q79.9-3.93 79.19-2.66 78.49-1.39 77.3-0.57 76.12 0.24 74.54 0.62 72.97 1 71.24 1L71.24 1Q67.04 1 63.35-0.76L63.35-0.76Q63.81-2.37 64.28-3.75 64.74-5.13 65.23-6.3L65.23-6.3 65.94-6.05Q65.72-4.98 65.72-3.99 65.72-3 65.79-2.2L65.79-2.2Q66.55-1.81 67.21-1.53 67.87-1.25 68.53-1.06 69.18-0.88 69.94-0.79 70.7-0.71 71.7-0.71L71.7-0.71Q73.19-0.71 74.16-0.9 75.14-1.1 75.69-1.57 76.24-2.05 76.46-2.84 76.68-3.64 76.68-4.81L76.68-4.81Q76.68-5.71 76.37-6.51 76.07-7.3 75.32-8.08 74.58-8.86 73.35-9.7 72.11-10.55 70.28-11.55L70.28-11.55Q67.33-13.31 65.82-15.05 64.3-16.8 64.3-18.8L64.3-18.8Q64.3-20.39 64.96-21.62 65.62-22.85 66.76-23.69 67.89-24.54 69.4-24.96 70.92-25.39 72.6-25.39L72.6-25.39Q73.46-25.39 74.4-25.27 75.34-25.15 76.22-24.91 77.09-24.68 77.86-24.35 78.63-24.02 79.19-23.61L79.19-23.61Q78.41-20.41 77.29-17.99L77.29-17.99 76.58-18.26Q76.63-18.97 76.66-20.01 76.68-21.04 76.68-22.46L76.68-22.46Q75.09-23.71 72.29-23.71L72.29-23.71Q70.89-23.71 69.93-23.54 68.96-23.36 68.38-22.95 67.79-22.53 67.54-21.81 67.28-21.09 67.28-20L67.28-20Q67.28-19.19 67.5-18.49 67.72-17.8 68.28-17.13 68.84-16.46 69.81-15.76 70.77-15.06 72.29-14.26L72.29-14.26Q74.65-12.96 76.13-11.99 77.61-11.01 78.45-10.07 79.29-9.13 79.6-8.11 79.9-7.08 79.9-5.69ZM92.03-22.61L92.03-6.74Q92.03-3.42 92.77-2.16 93.5-0.9 95.13-0.9L95.13-0.9Q96.92-0.9 99.48-2.25L99.48-2.25 100.24-1.2Q96.21 1 93.64 1L93.64 1Q92.28 1 91.42 0.76 90.57 0.51 89.86-0.2 89.15-0.9 88.85-2.28 88.54-3.66 88.54-5.86L88.54-5.86 88.54-22.41 84.88-22.19 84.88-23.75Q86.81-24.17 88.54-24.29L88.54-24.29 88.54-27.76Q90.62-28.93 91.94-31.1L91.94-31.1 92.69-30.81Q92.28-29.83 92.16-28.6 92.03-27.37 92.03-24.44L92.03-24.44 100.43-24.44 100.43-23.58Q99.41-23.17 98.36-22.89 97.31-22.61 96.18-22.61L96.18-22.61 92.03-22.61ZM122.67-17.65L122.67-2.76Q122.67-2.34 122.85-1.99 123.04-1.64 123.29-1.4 123.55-1.17 124.04-0.95 124.53-0.73 124.89-0.61 125.26-0.49 125.92-0.29L125.92-0.29 125.72 0.29Q124.16 0 122.62 0L122.62 0Q120.69 0 118.81 0.39L118.81 0.39 118.67 0.15Q119.18-0.56 119.18-2.44L119.18-2.44 119.18-4.05Q117.96-1.78 115.38-0.39 112.81 1 110.17 1L110.17 1Q107.36 1 105.64-0.45 103.92-1.9 103.92-4.76L103.92-4.76Q103.92-6.62 104.69-8.07 105.46-9.52 106.74-10.53 108.02-11.55 110.04-12.33 112.05-13.11 114.19-13.6 116.32-14.09 119.18-14.5L119.18-14.5 119.18-16.75Q119.18-23.46 113.88-23.46L113.88-23.46Q112.17-23.46 109.69-22.62 107.22-21.78 105.53-20.41L105.53-20.41 104.53-21.56Q106.66-23.24 109.57-24.34 112.49-25.44 115.03-25.44L115.03-25.44Q116.15-25.44 117.17-25.23 118.18-25.02 119.22-24.48 120.25-23.93 121-23.08 121.74-22.24 122.21-20.84 122.67-19.43 122.67-17.65L122.67-17.65ZM111.32-0.85L111.32-0.85Q113.44-0.85 115.76-2.26 118.08-3.66 119.18-5.76L119.18-5.76 119.18-13.21Q112.93-12.3 110.26-10.44 107.58-8.57 107.58-5L107.58-5Q107.58-2.83 108.51-1.84 109.44-0.85 111.32-0.85ZM153.5-22.19L153.5-6.81Q153.5-5.18 153.66-4.09 153.82-3 154.22-2.34 154.63-1.68 155.33-1.4 156.04-1.12 156.82-1.12 157.6-1.12 157.8-1.15L157.8-1.15 157.92-0.71Q153.89 0.49 150.5 0.49L150.5 0.49Q150.01-0.83 150.01-2.29L150.01-2.29 150.01-3.44Q148.72-2.29 147.61-1.46 146.5-0.63 145.42-0.09 144.35 0.46 143.22 0.73 142.1 1 140.81 1L140.81 1Q139.34 1 137.89 0.66 136.44 0.32 135.27-0.56 134.09-1.44 133.37-2.95 132.65-4.47 132.65-6.81L132.65-6.81 132.65-21.9Q132.65-22.88 131.84-23.39 131.02-23.9 129.41-24.34L129.41-24.34 129.6-24.95Q131.02-24.66 133.26-24.66L133.26-24.66Q134.66-24.66 136.51-25.05L136.51-25.05 136.66-24.8Q136.17-24.05 136.17-22.19L136.17-22.19 136.17-7.69Q136.17-5.66 136.63-4.36 137.1-3.05 137.88-2.29 138.66-1.54 139.71-1.26 140.76-0.98 141.93-0.98L141.93-0.98Q143.03-0.98 143.97-1.21 144.91-1.44 145.86-1.94 146.81-2.44 147.81-3.23 148.82-4.03 150.01-5.15L150.01-5.15 150.01-21.29Q150.01-22.05 149.88-22.52 149.74-23 149.36-23.33 148.99-23.66 148.28-23.9 147.57-24.15 146.42-24.44L146.42-24.44 146.62-25.05Q148.01-24.85 149.01-24.76 150.01-24.66 150.62-24.66L150.62-24.66Q152.01-24.66 153.87-25.05L153.87-25.05 154.02-24.8Q153.5-24.07 153.5-22.19L153.5-22.19ZM165.81-2.44L165.81-18.09Q165.81-19.73 165.65-20.83 165.49-21.92 165.09-22.58 164.68-23.24 163.97-23.51 163.27-23.78 161.51-23.75L161.51-23.75 161.41-24.19Q165.39-25.39 168.81-25.39L168.81-25.39Q169.32-24.1 169.32-22.61L169.32-22.61 169.32-19.6 169.42-19.51Q170.44-20.92 171.38-22.02 172.32-23.12 173.3-23.85 174.28-24.58 175.35-24.96 176.43-25.34 177.74-25.34L177.74-25.34Q178.57-25.34 179.57-25.2L179.57-25.2 178.16-19.24 177.26-19.51Q177.26-19.87 177.21-20.51 177.16-21.14 177.07-21.77 176.99-22.39 176.85-22.84 176.72-23.29 176.55-23.29L176.55-23.29Q175.84-23.29 175.12-22.99 174.4-22.68 173.54-22 172.69-21.31 171.66-20.21 170.64-19.12 169.32-17.55L169.32-17.55 169.32-3.34Q169.32-2.56 169.44-2.09 169.57-1.61 169.96-1.29 170.35-0.98 171.05-0.73 171.76-0.49 172.91-0.2L172.91-0.2 172.71 0.39Q171.3 0.2 170.31 0.1 169.32 0 168.71 0L168.71 0Q167.32 0 165.46 0.39L165.46 0.39 165.32 0.15Q165.81-0.56 165.81-2.44L165.81-2.44ZM201.57-17.65L201.57-2.76Q201.57-2.34 201.75-1.99 201.94-1.64 202.19-1.4 202.45-1.17 202.94-0.95 203.42-0.73 203.79-0.61 204.16-0.49 204.82-0.29L204.82-0.29 204.62 0.29Q203.06 0 201.52 0L201.52 0Q199.59 0 197.71 0.39L197.71 0.39 197.57 0.15Q198.08-0.56 198.08-2.44L198.08-2.44 198.08-4.05Q196.86-1.78 194.28-0.39 191.71 1 189.07 1L189.07 1Q186.26 1 184.54-0.45 182.82-1.9 182.82-4.76L182.82-4.76Q182.82-6.62 183.59-8.07 184.36-9.52 185.64-10.53 186.92-11.55 188.94-12.33 190.95-13.11 193.09-13.6 195.22-14.09 198.08-14.5L198.08-14.5 198.08-16.75Q198.08-23.46 192.78-23.46L192.78-23.46Q191.07-23.46 188.59-22.62 186.12-21.78 184.43-20.41L184.43-20.41 183.43-21.56Q185.55-23.24 188.47-24.34 191.39-25.44 193.93-25.44L193.93-25.44Q195.05-25.44 196.06-25.23 197.08-25.02 198.11-24.48 199.15-23.93 199.9-23.08 200.64-22.24 201.11-20.84 201.57-19.43 201.57-17.65L201.57-17.65ZM190.22-0.85L190.22-0.85Q192.34-0.85 194.66-2.26 196.98-3.66 198.08-5.76L198.08-5.76 198.08-13.21Q191.83-12.3 189.15-10.44 186.48-8.57 186.48-5L186.48-5Q186.48-2.83 187.41-1.84 188.34-0.85 190.22-0.85ZM212.7-2.44L212.7-18.09Q212.7-19.73 212.54-20.83 212.38-21.92 211.98-22.58 211.58-23.24 210.87-23.51 210.16-23.78 209.37-23.78 208.57-23.78 208.4-23.75L208.4-23.75 208.31-24.19Q212.28-25.39 215.7-25.39L215.7-25.39Q216.22-24.1 216.22-22.61L216.22-22.61 216.22-21.9Q217.63-22.85 218.83-23.56 220.02-24.27 221.18-24.76 222.34-25.24 223.56-25.49 224.78-25.73 226.25-25.73L226.25-25.73Q227.57-25.73 228.87-25.39 230.18-25.05 231.22-24.17 232.26-23.29 232.9-21.78 233.55-20.26 233.55-17.94L233.55-17.94 233.55-2.76Q233.55-2.17 233.83-1.78 234.11-1.39 234.56-1.12 235.01-0.85 235.6-0.67 236.19-0.49 236.82-0.29L236.82-0.29 236.6 0.29Q235.23 0 232.96 0L232.96 0Q231.57 0 229.72 0.39L229.72 0.39 229.57 0.15Q230.06-0.56 230.06-2.44L230.06-2.44 230.06-17.04Q230.06-19.09 229.67-20.4 229.28-21.7 228.61-22.45 227.93-23.19 227.04-23.49 226.15-23.78 225.15-23.78L225.15-23.78Q223.93-23.78 222.87-23.56 221.81-23.34 220.74-22.89 219.68-22.44 218.58-21.77 217.48-21.09 216.22-20.19L216.22-20.19 216.22-3.34Q216.22-2.56 216.34-2.09 216.46-1.61 216.85-1.29 217.24-0.98 217.95-0.73 218.66-0.49 219.8-0.2L219.8-0.2 219.61 0.39Q218.19 0.2 217.2 0.1 216.22 0 215.61 0L215.61 0Q214.21 0 212.36 0.39L212.36 0.39 212.21 0.15Q212.7-0.56 212.7-2.44L212.7-2.44ZM248.46-22.61L248.46-6.74Q248.46-3.42 249.2-2.16 249.93-0.9 251.56-0.9L251.56-0.9Q253.35-0.9 255.91-2.25L255.91-2.25 256.67-1.2Q252.64 1 250.08 1L250.08 1Q248.71 1 247.85 0.76 247 0.51 246.29-0.2 245.58-0.9 245.28-2.28 244.97-3.66 244.97-5.86L244.97-5.86 244.97-22.41 241.31-22.19 241.31-23.75Q243.24-24.17 244.97-24.29L244.97-24.29 244.97-27.76Q247.05-28.93 248.37-31.1L248.37-31.1 249.12-30.81Q248.71-29.83 248.59-28.6 248.46-27.37 248.46-24.44L248.46-24.44 256.86-24.44 256.86-23.58Q255.84-23.17 254.79-22.89 253.74-22.61 252.61-22.61L252.61-22.61 248.46-22.61Z" opacity="1" transform="matrix(1,0,0,1,0,0)" fill="#003c3b" class="undefined-text-1" data-fill-palette-color="secondary" id="text-1"></path></svg></g></svg></g></svg></g></svg></g><g><svg viewBox="0 0 181.38548200201558 181.45216711317465" height="181.45216711317465" width="181.38548200201558"><g><svg xmlns="http://www.w3.org/2000/svg" xmlns:xlink="http://www.w3.org/1999/xlink" version="1.1" x="0" y="0" viewBox="0.018204212188720703 0 99.96324920654297 100" enable-background="new 0 0 100 100" xml:space="preserve" height="181.45216711317465" width="181.38548200201558" class="icon-icon-0" data-fill-palette-color="accent" id="icon-0"><g fill="#003c3b" data-fill-palette-color="accent"><path d="M73.428 5.851C66.234 2.019 58.144 0 50.039 0 31.477 0 14.542 10.186 5.846 26.566-7.075 50.918 2.212 81.241 26.562 94.161 33.768 97.979 41.848 100 49.953 100c18.573 0 35.509-10.174 44.204-26.556C107.077 49.095 97.778 18.77 73.428 5.851zM28.003 91.439C5.156 79.307-3.564 50.855 8.556 28.008 16.722 12.637 32.61 3.079 50.039 3.079c7.599 0 15.185 1.896 21.948 5.492 22.849 12.119 31.569 40.572 19.448 63.42-8.166 15.384-24.055 24.93-41.482 24.93C42.353 96.921 34.766 95.024 28.003 91.439z" fill="#003c3b" data-fill-palette-color="accent"></path><path d="M86.386 29.178c-0.42-0.738-1.356-0.998-2.095-0.566-0.738 0.419-0.998 1.368-0.58 2.095 0.112 0.209 0.236 0.406 0.347 0.615 9.582 17.465 4.2 39.672-12.44 50.808-8.438 5.653-18.524 7.746-28.488 5.924-0.234-0.038-0.456-0.073-0.69-0.124-0.825-0.159-1.638 0.382-1.811 1.207-0.172 0.838 0.37 1.65 1.207 1.824 2.771 0.553 5.542 0.825 8.302 0.825 8.204 0 16.22-2.428 23.204-7.095C91.508 72.521 97.236 48.135 86.386 29.178z" fill="#003c3b" data-fill-palette-color="accent"></path><path d="M25.799 80.183c-1.762-1.405-3.4-2.969-4.89-4.682-1.108-1.256-2.144-2.598-3.079-4.003l-1.281 0.863 1.207-0.986C5.969 53.639 10.772 29.561 28.459 17.71c5.481-3.67 11.788-5.874 18.303-6.429 0.197-0.025 0.395-0.037 0.592-0.05 0.85-0.048 1.49-0.787 1.428-1.638-0.062-0.85-0.801-1.489-1.638-1.429-7.267 0.493-14.312 2.907-20.397 6.983C7.656 27.946 2.458 53.935 15.133 72.989c0.049 0.073 0.099 0.159 0.135 0.222 1.022 1.516 2.131 2.969 3.326 4.323 1.749 1.995 3.695 3.843 5.789 5.455 0.271 0.223 0.604 0.32 0.937 0.32 0.468 0 0.911-0.209 1.219-0.591 0.518-0.677 0.395-1.637-0.271-2.167C26.107 80.428 25.947 80.305 25.799 80.183z" fill="#003c3b" data-fill-palette-color="accent"></path><path d="M64.449 13.917c4.359 1.748 8.326 4.237 11.774 7.403 0.295 0.271 0.678 0.405 1.047 0.405 0.42 0 0.826-0.171 1.134-0.504 0.577-0.616 0.529-1.602-0.099-2.169-3.72-3.423-8.006-6.108-12.711-7.993-0.801-0.32-1.688 0.062-2.009 0.851C63.278 12.71 63.66 13.597 64.449 13.917z" fill="#003c3b" data-fill-palette-color="accent"></path></g><path d="M42.932 69.048c-0.32-1.959-1.798-3.523-3.633-4.028-0.024-0.381-0.049-0.763-0.062-1.145-0.012-0.518-0.012-1.059 0-1.614 0.025-0.565 0.062-1.134 0.099-1.699 0.111-1.184 0.284-2.316 0.505-3.375 0.221-0.998 0.517-2.032 0.862-2.98l0.924-2.144c0.123-0.246 0.234-0.431 0.308-0.566 0-0.013 0.123-0.21 0.136-0.223 3.251-5.319 2.044-12.131-2.599-16.023-0.468-0.395-0.96-0.751-1.502-1.084-1.959-1.206-4.212-1.848-6.504-1.848-4.36 0-8.326 2.229-10.617 5.938-3.215 5.26-2.069 12.169 2.636 16.062 0.013 0.012 0.111 0.099 0.123 0.099l0.099 0.086c0.111 0.111 0.283 0.258 0.493 0.467l1.552 1.713c0.616 0.775 1.231 1.65 1.773 2.55 0.554 0.924 1.084 1.934 1.564 3.017 0.221 0.529 0.443 1.06 0.641 1.577 0.196 0.53 0.369 1.034 0.517 1.54 0.012 0.037 0.024 0.061 0.037 0.099l-0.504 1.649c-1.097 1.121-1.626 2.71-1.355 4.337 0 0.023 0.012 0.048 0.012 0.073 0.395 2.155 2.18 3.843 4.36 4.102 0.197 0.012 0.395 0.025 0.591 0.025 0.271 0 0.542-0.014 0.813-0.062 0.813-0.135 1.564-0.455 2.205-0.937 0.764 0.247 1.564 0.309 2.39 0.174 0.468-0.075 0.911-0.223 1.342-0.42C42.143 73.444 43.289 71.24 42.932 69.048zM38.805 71.622c-0.16 0.085-0.333 0.136-0.517 0.172-0.48 0.074-0.96-0.024-1.355-0.283-0.665-0.419-1.54-0.271-2.032 0.334-0.295 0.38-0.727 0.628-1.194 0.701-0.185 0.037-0.37 0.037-0.554 0.012-0.85-0.098-1.552-0.764-1.688-1.613-0.147-0.888 0.345-1.786 1.195-2.119l0.123-0.048c0.751-0.234 1.194-0.986 1.046-1.763-0.16-0.825-0.369-1.688-0.64-2.548-0.173-0.568-0.357-1.134-0.579-1.726-0.222-0.566-0.456-1.145-0.702-1.725-0.049-0.123-0.111-0.233-0.172-0.344V60.66c-0.493-1.085-1.01-2.095-1.577-3.019-0.616-1.009-1.305-2.007-2.02-2.895l-1.564-1.761-0.234-0.233c-0.259-0.247-0.469-0.444-0.604-0.556l-0.259-0.221c-3.56-2.957-4.421-8.153-1.995-12.107 1.712-2.796 4.693-4.472 7.981-4.472 1.725 0 3.412 0.48 4.89 1.392 0.813 0.493 1.515 1.098 2.106 1.774 2.661 3.006 3.189 7.501 1.022 11.036-0.012 0.023-0.086 0.135-0.099 0.16l-0.099 0.159c-0.099 0.174-0.246 0.431-0.394 0.727-0.062 0.111-0.111 0.222-0.173 0.346l-0.579 1.317c-0.012 0.013-0.049 0.123-0.062 0.148l-0.271 0.689c-0.382 1.084-0.727 2.254-0.973 3.388-0.258 1.182-0.444 2.449-0.566 3.768-0.049 0.628-0.086 1.244-0.111 1.86-0.012 0.615-0.012 1.22 0 1.799 0.038 0.887 0.099 1.773 0.222 2.636 0.11 0.775 0.776 1.342 1.564 1.33l0.062-1.54 0.074 1.54c0.899 0.05 1.663 0.727 1.811 1.625C40.037 70.402 39.594 71.253 38.805 71.622z" fill="#003c3b" data-fill-palette-color="accent"></path><path d="M57.133 59.588c0.727 1.552 1.934 2.834 3.448 3.635 0.11 0.061 0.233 0.123 0.344 0.171 1.455 0.679 3.104 0.899 4.682 0.641 0.899 0.333 1.823 0.506 2.783 0.506 0.777 0 1.552-0.124 2.304-0.346 1.639-0.505 3.067-1.527 4.076-2.918 2.181-0.53 4.065-1.984 5.124-3.979 1.097-2.045 1.22-4.484 0.358-6.64 0.368-1.416 0.344-2.895-0.087-4.312-0.604-1.958-1.934-3.571-3.658-4.556-0.542-0.309-1.109-0.555-1.712-0.727-0.543-0.506-1.133-0.936-1.774-1.282-1.527-0.813-3.312-1.096-5.025-0.813-1.612-0.603-3.411-0.664-5.073-0.146-0.702 0.209-1.367 0.518-1.983 0.924-2.647 0.233-5.025 1.798-6.27 4.163-0.702 1.305-1.01 2.746-0.911 4.226-1.244 1.944-1.589 4.358-0.911 6.589C53.513 56.879 55.088 58.652 57.133 59.588zM57.379 45.35c0.813-1.526 2.39-2.5 4.126-2.562 0.32 0 0.616-0.111 0.875-0.295 0.443-0.333 0.923-0.58 1.44-0.728 1.121-0.346 2.315-0.271 3.4 0.21 0.308 0.147 0.652 0.171 0.984 0.098 1.146-0.271 2.34-0.122 3.375 0.432 0.469 0.246 0.899 0.579 1.282 0.997 0.209 0.223 0.491 0.382 0.786 0.444 0.358 0.087 0.715 0.209 1.036 0.369 1.206 0.566 2.142 1.639 2.536 2.932 0.296 0.984 0.284 2.021-0.062 3.004-0.136 0.395-0.11 0.825 0.074 1.196 0.69 1.392 0.666 3.042-0.061 4.409-0.715 1.366-2.021 2.278-3.561 2.512-0.456 0.062-0.862 0.333-1.097 0.728-0.616 1.034-1.588 1.798-2.721 2.155-1.121 0.333-2.329 0.259-3.399-0.223-0.197-0.099-0.42-0.135-0.629-0.135-0.124 0-0.247 0.013-0.357 0.036-0.874 0.21-1.772 0.174-2.623-0.11-0.259-0.085-0.518-0.197-0.764-0.32-1.047-0.553-1.848-1.49-2.267-2.623-0.16-0.432-0.505-0.764-0.936-0.924-1.466-0.517-2.574-1.663-3.03-3.141-0.443-1.479-0.159-3.104 0.788-4.335 0.247-0.333 0.357-0.752 0.296-1.158C56.727 47.283 56.899 46.262 57.379 45.35z" fill="#003c3b" data-fill-palette-color="accent"></path></svg></g></svg></g></svg></g></svg><rect width="395.52" height="122.04383998781509" fill="none" stroke="none" visibility="hidden"></rect></g></svg></g></svg>